<svg width="40" height="40" viewBox="0 0 40 40" fill="none" xmlns="http://www.w3.org/2000/svg">
<path d="M15.2703 18.7719L18.4188 16.2641C20.4531 14.6438 21.4703 13.8328 22.1109 14.2328C22.7516 14.6328 22.4188 15.8734 21.7547 18.3516L21.6922 18.5859C21.4516 19.4797 21.3328 19.9266 21.5422 20.2828L21.5531 20.3016C21.7719 20.6547 22.2375 20.7797 23.1672 21.0281C24.8422 21.4766 25.6797 21.7 25.8266 22.2844C25.8288 22.2942 25.8309 22.3041 25.8328 22.3141C25.9625 22.9016 25.3016 23.4266 23.9813 24.4797L20.8328 26.9859C18.7969 28.6078 17.7797 29.4172 17.1391 29.0172C16.5 28.6172 16.8328 27.3766 17.4969 24.8984L17.5594 24.6641C17.7984 23.7719 17.9188 23.325 17.7078 22.9672L17.6969 22.9484C17.4781 22.5969 17.0125 22.4719 16.0828 22.2219C14.4078 21.7734 13.5703 21.55 13.4234 20.9656C13.4212 20.9558 13.4191 20.9459 13.4172 20.9359C13.2875 20.35 13.9484 19.8234 15.2703 18.7719Z" stroke="#030303" stroke-width="2.34375"/>
<path d="M11.8125 8.09064C14.1868 6.71705 16.882 5.99579 19.625 6.00002C28.2547 6.00002 35.25 12.9953 35.25 21.625C35.25 30.2547 28.2547 37.25 19.625 37.25C10.9953 37.25 4 30.2547 4 21.625C4 18.7797 4.76094 16.1094 6.09063 13.8125" stroke="#030303" stroke-width="2.8" stroke-linecap="round"/>
<path d="M1.76226 12.5275L6.92152 11.9912C7.35146 11.9465 7.73597 12.2594 7.77957 12.6895L8.34727 18.2895" stroke="#030303" stroke-width="2.8" stroke-linecap="round" stroke-linejoin="round"/>
</svg>
