<svg width="32" height="32" viewBox="0 0 32 32" fill="none" xmlns="http://www.w3.org/2000/svg">
<mask id="path-1-inside-1_1_1467" fill="white">
<path d="M32 16C32 24.8365 24.8365 32 16 32C7.16344 32 0 24.8365 0 16C0 7.16344 7.16344 0 16 0C24.8365 0 32 7.16344 32 16ZM1.73382 16C1.73382 23.879 8.12101 30.2662 16 30.2662C23.879 30.2662 30.2662 23.879 30.2662 16C30.2662 8.12101 23.879 1.73382 16 1.73382C8.12101 1.73382 1.73382 8.12101 1.73382 16Z"/>
</mask>
<path d="M32 16C32 24.8365 24.8365 32 16 32C7.16344 32 0 24.8365 0 16C0 7.16344 7.16344 0 16 0C24.8365 0 32 7.16344 32 16ZM1.73382 16C1.73382 23.879 8.12101 30.2662 16 30.2662C23.879 30.2662 30.2662 23.879 30.2662 16C30.2662 8.12101 23.879 1.73382 16 1.73382C8.12101 1.73382 1.73382 8.12101 1.73382 16Z" stroke="#D9D9D9" stroke-width="2" mask="url(#path-1-inside-1_1_1467)"/>
<mask id="path-2-inside-2_1_1467" fill="white">
<path d="M16 0C18.8941 3.45124e-08 21.7341 0.785002 24.2174 2.2714C26.7007 3.75779 28.7343 5.88992 30.1017 8.44068C31.469 10.9914 32.1189 13.8653 31.9821 16.7562C31.8453 19.6472 30.927 22.4468 29.3249 24.8571C27.7227 27.2673 25.4969 29.1979 22.8843 30.4432C20.2718 31.6885 17.3704 32.2018 14.4892 31.9285C11.608 31.6552 8.85484 30.6056 6.523 28.8913C4.19116 27.1771 2.36795 24.8625 1.24756 22.194L2.84619 21.5228C3.84517 23.9021 5.47081 25.9659 7.54996 27.4944C9.62911 29.0228 12.0839 29.9588 14.6529 30.2024C17.2219 30.4461 19.8089 29.9884 22.1383 28.8781C24.4678 27.7677 26.4524 26.0464 27.8809 23.8973C29.3094 21.7482 30.1283 19.2519 30.2502 16.6743C30.3722 14.0967 29.7927 11.5342 28.5735 9.25984C27.3544 6.98548 25.5411 5.08441 23.3269 3.75908C21.1127 2.43376 18.5805 1.73382 16 1.73382V0Z"/>
</mask>
<path d="M16 0C18.8941 3.45124e-08 21.7341 0.785002 24.2174 2.2714C26.7007 3.75779 28.7343 5.88992 30.1017 8.44068C31.469 10.9914 32.1189 13.8653 31.9821 16.7562C31.8453 19.6472 30.927 22.4468 29.3249 24.8571C27.7227 27.2673 25.4969 29.1979 22.8843 30.4432C20.2718 31.6885 17.3704 32.2018 14.4892 31.9285C11.608 31.6552 8.85484 30.6056 6.523 28.8913C4.19116 27.1771 2.36795 24.8625 1.24756 22.194L2.84619 21.5228C3.84517 23.9021 5.47081 25.9659 7.54996 27.4944C9.62911 29.0228 12.0839 29.9588 14.6529 30.2024C17.2219 30.4461 19.8089 29.9884 22.1383 28.8781C24.4678 27.7677 26.4524 26.0464 27.8809 23.8973C29.3094 21.7482 30.1283 19.2519 30.2502 16.6743C30.3722 14.0967 29.7927 11.5342 28.5735 9.25984C27.3544 6.98548 25.5411 5.08441 23.3269 3.75908C21.1127 2.43376 18.5805 1.73382 16 1.73382V0Z" stroke="#49B02D" stroke-width="2" mask="url(#path-2-inside-2_1_1467)"/>
<path d="M17.2 7L10 17.8H14.8V25L22 14.2H17.2V7Z" fill="#49B02D"/>
</svg>
