<svg width="37" height="37" viewBox="0 0 37 37" fill="none" xmlns="http://www.w3.org/2000/svg">
<path d="M33.9167 23.8958C33.9167 28.1532 30.4656 31.6042 26.2083 31.6042C24.8285 31.6042 23.532 31.2419 22.4112 30.6059C21.2242 29.9332 20.2369 28.9576 19.5498 27.7789C18.8627 26.6001 18.5005 25.2602 18.5 23.8958C18.5 21.9163 19.2462 20.111 20.4718 18.7467C21.194 17.9403 22.0783 17.2956 23.0668 16.8546C24.0554 16.4136 25.1259 16.1863 26.2083 16.1875C30.4656 16.1875 33.9167 19.6385 33.9167 23.8958Z" stroke="#030303" stroke-width="2.5" stroke-linecap="round" stroke-linejoin="round"/>
<path d="M26.2083 9.25V16.1875C25.1259 16.1862 24.0554 16.4136 23.0668 16.8546C22.0783 17.2956 21.194 17.9403 20.4718 18.7467C19.1998 20.1598 18.4972 21.9945 18.5 23.8958C18.5005 25.2602 18.8627 26.6001 19.5498 27.7789C20.2369 28.9576 21.2242 29.9331 22.4112 30.6059C20.3593 31.2265 17.6351 31.6042 14.6458 31.6042C8.26025 31.6042 3.08334 29.8783 3.08334 27.75V9.25" stroke="#030303" stroke-width="2.5" stroke-linecap="round" stroke-linejoin="round"/>
<path d="M3.08334 21.5833C3.08334 23.7116 8.26025 25.4375 14.6458 25.4375C16.0387 25.4375 17.3746 25.3558 18.611 25.2047M3.08334 15.4167C3.08334 17.5449 8.26025 19.2708 14.6458 19.2708C16.7703 19.2708 18.7613 19.0797 20.4718 18.7467M26.2083 20.0417L23.8958 23.125L28.5208 24.6667L26.2083 27.75M26.2083 9.25001C26.2083 11.3783 21.0314 13.1042 14.6458 13.1042C8.26025 13.1042 3.08334 11.3783 3.08334 9.25001C3.08334 7.12174 8.26025 5.39584 14.6458 5.39584C21.0314 5.39584 26.2083 7.12174 26.2083 9.25001Z" stroke="#030303" stroke-width="2.8" stroke-linecap="round" stroke-linejoin="round"/>
</svg>
