<svg width="40" height="40" viewBox="0 0 40 40" fill="none" xmlns="http://www.w3.org/2000/svg">
<path d="M23.1854 27.2634C23.4392 25.9945 24.0736 25.1063 25.0887 24.0913C26.3576 22.9493 26.992 21.2998 26.992 19.6503C26.992 17.6311 26.1899 15.6947 24.7622 14.2669C23.3344 12.8392 21.398 12.0371 19.3788 12.0371C17.3597 12.0371 15.4233 12.8392 13.9955 14.2669C12.5678 15.6947 11.7657 17.6311 11.7657 19.6503C11.7657 20.9191 12.0195 22.4417 13.669 24.0913C14.5572 24.9795 15.3185 25.9945 15.5723 27.2634" stroke="#030303" stroke-width="2.80166" stroke-linecap="round" stroke-linejoin="round"/>
<path d="M15.5729 31.9169H23.186" stroke="#030303" stroke-width="2.80166" stroke-linecap="round" stroke-linejoin="round"/>
<path d="M16.8421 36.3575H21.9175" stroke="#030303" stroke-width="2.80166" stroke-linecap="round" stroke-linejoin="round"/>
<path d="M19.5158 4V5.5017" stroke="#030303" stroke-width="2.80166" stroke-linecap="round" stroke-linejoin="round"/>
<path d="M6 17.5142H7.5017" stroke="#030303" stroke-width="2.80166" stroke-linecap="round" stroke-linejoin="round"/>
<path d="M31.5296 17.5142H33.0313" stroke="#030303" stroke-width="2.80166" stroke-linecap="round" stroke-linejoin="round"/>
<path d="M29.0725 7.95773L28.0108 9.01944" stroke="#030303" stroke-width="2.80166" stroke-linecap="round" stroke-linejoin="round"/>
<path d="M9.95879 7.95773L11.0205 9.01944" stroke="#030303" stroke-width="2.80166" stroke-linecap="round" stroke-linejoin="round"/>
</svg>
