<svg width="13" height="4" viewBox="0 0 13 4" fill="none" xmlns="http://www.w3.org/2000/svg">
<mask id="mask0_1_1452" style="mask-type:alpha" maskUnits="userSpaceOnUse" x="-4" y="-9" width="21" height="21">
<rect x="-3.24988" y="-8.12495" width="19.5" height="19.5" fill="#D9D9D9"/>
</mask>
<g mask="url(#mask0_1_1452)">
<path d="M1.625 3.25C1.17813 3.25 0.795573 3.09089 0.477344 2.77266C0.159115 2.45443 0 2.07188 0 1.625C0 1.17813 0.159115 0.795573 0.477344 0.477344C0.795573 0.159115 1.17813 0 1.625 0C2.07188 0 2.45443 0.159115 2.77266 0.477344C3.09089 0.795573 3.25 1.17813 3.25 1.625C3.25 2.07188 3.09089 2.45443 2.77266 2.77266C2.45443 3.09089 2.07188 3.25 1.625 3.25ZM6.5 3.25C6.05313 3.25 5.67057 3.09089 5.35234 2.77266C5.03412 2.45443 4.875 2.07188 4.875 1.625C4.875 1.17813 5.03412 0.795573 5.35234 0.477344C5.67057 0.159115 6.05313 0 6.5 0C6.94688 0 7.32943 0.159115 7.64766 0.477344C7.96589 0.795573 8.125 1.17813 8.125 1.625C8.125 2.07188 7.96589 2.45443 7.64766 2.77266C7.32943 3.09089 6.94688 3.25 6.5 3.25ZM11.375 3.25C10.9281 3.25 10.5456 3.09089 10.2273 2.77266C9.90912 2.45443 9.75 2.07188 9.75 1.625C9.75 1.17813 9.90912 0.795573 10.2273 0.477344C10.5456 0.159115 10.9281 0 11.375 0C11.8219 0 12.2044 0.159115 12.5227 0.477344C12.8409 0.795573 13 1.17813 13 1.625C13 2.07188 12.8409 2.45443 12.5227 2.77266C12.2044 3.09089 11.8219 3.25 11.375 3.25Z" fill="#212123"/>
</g>
</svg>
