<svg width="40" height="40" viewBox="0 0 40 40" fill="none" xmlns="http://www.w3.org/2000/svg">
<path d="M7.9425 21.2521C7.99086 22.4183 8.17838 23.3795 8.39467 24.0334C9.01774 25.9746 10.0846 27.7594 11.5312 29.2302C13.9463 31.6859 17.222 33.0654 20.6375 33.0654C24.053 33.0654 27.3286 31.6859 29.7437 29.2302C32.1588 26.7746 33.5156 23.444 33.5156 19.9712C33.5156 16.4984 32.1588 13.1678 29.7437 10.7122C27.3286 8.25651 24.053 6.87694 20.6375 6.87694C17.222 6.87694 13.9463 8.25651 11.5312 10.7122C11.073 11.2821 10.6686 11.614 10.3125 12.1896" stroke="#030303" stroke-width="2.8" stroke-linecap="round" stroke-linejoin="round"/>
<path d="M20 22C20.5304 22 21.0391 21.7893 21.4142 21.4142C21.7893 21.0391 22 20.5304 22 20C22 19.4696 21.7893 18.9609 21.4142 18.5858C21.0391 18.2107 20.5304 18 20 18C19.4696 18 18.9609 18.2107 18.5858 18.5858C18.2107 18.9609 18 19.4696 18 20C18 20.5304 18.2107 21.0391 18.5858 21.4142C18.9609 21.7893 19.4696 22 20 22Z" stroke="#030303" stroke-width="2" stroke-linecap="round" stroke-linejoin="round"/>
<path d="M3.75 24.3765L7.27954 20.5754C7.57367 20.2587 8.0691 20.241 8.3851 20.5359L12.5 24.3765" stroke="#030303" stroke-width="2.5" stroke-linecap="round" stroke-linejoin="round"/>
</svg>
