<svg width="20" height="20" viewBox="0 0 20 20" fill="none" xmlns="http://www.w3.org/2000/svg">
<path d="M17.8942 7.89515C17.8942 7.75557 17.8388 7.62171 17.7401 7.52302C17.6414 7.42432 17.5075 7.36887 17.3679 7.36887C17.2284 7.36887 17.0945 7.42432 16.9958 7.52302C16.8971 7.62171 16.8417 7.75557 16.8417 7.89515H17.8942ZM3.15835 7.89515C3.15835 7.75557 3.1029 7.62171 3.00421 7.52302C2.90551 7.42432 2.77165 7.36887 2.63207 7.36887C2.49249 7.36887 2.35863 7.42432 2.25993 7.52302C2.16124 7.62171 2.10579 7.75557 2.10579 7.89515H3.15835ZM19.1004 10.3729C19.1993 10.4717 19.3333 10.5272 19.4731 10.5272C19.6128 10.5272 19.7468 10.4717 19.8457 10.3729C19.9445 10.2741 20 10.14 20 10.0003C20 9.86052 19.9445 9.72649 19.8457 9.62767L19.1004 10.3729ZM10 0.527222L10.3726 0.154615C10.3237 0.105604 10.2656 0.0667195 10.2017 0.0401882C10.1378 0.0136568 10.0692 0 10 0C9.93078 0 9.86223 0.0136568 9.79829 0.0401882C9.73436 0.0667195 9.67628 0.105604 9.62739 0.154615L10 0.527222ZM0.154339 9.62767C0.0555172 9.72649 0 9.86052 0 10.0003C0 10.14 0.0555172 10.2741 0.154339 10.3729C0.25316 10.4717 0.387191 10.5272 0.526946 10.5272C0.6667 10.5272 0.800731 10.4717 0.899553 10.3729L0.154339 9.62767ZM4.73719 19.9996H15.2628V18.947H4.73719V19.9996ZM17.8942 17.3682V7.89515H16.8417V17.3682H17.8942ZM3.15835 17.3682V7.89515H2.10579V17.3682H3.15835ZM19.8457 9.62767L10.3726 0.154615L9.62739 0.899828L19.1004 10.3729L19.8457 9.62767ZM9.62739 0.154615L0.154339 9.62767L0.899553 10.3729L10.3726 0.899828L9.62739 0.154615ZM15.2628 19.9996C15.9607 19.9996 16.63 19.7224 17.1235 19.2289C17.617 18.7354 17.8942 18.0661 17.8942 17.3682H16.8417C16.8417 17.7869 16.6753 18.1885 16.3792 18.4846C16.0831 18.7807 15.6815 18.947 15.2628 18.947V19.9996ZM4.73719 18.947C4.31846 18.947 3.91687 18.7807 3.62078 18.4846C3.32469 18.1885 3.15835 17.7869 3.15835 17.3682H2.10579C2.10579 18.0661 2.38302 18.7354 2.87651 19.2289C3.36999 19.7224 4.0393 19.9996 4.73719 19.9996V18.947Z" fill="#49B02D"/>
</svg>
