<svg width="21" height="21" viewBox="0 0 21 21" fill="none" xmlns="http://www.w3.org/2000/svg">
<path d="M6.31469 15.9897V4.91958M10.5 16.0595V10.5M14.6853 16.0804V7.70979M3.52448 0.734267H17.4755C18.2155 0.734267 18.9252 1.02823 19.4485 1.5515C19.9718 2.07477 20.2657 2.78447 20.2657 3.52448V17.4755C20.2657 18.2155 19.9718 18.9252 19.4485 19.4485C18.9252 19.9718 18.2155 20.2657 17.4755 20.2657H3.52448C2.78447 20.2657 2.07477 19.9718 1.5515 19.4485C1.02823 18.9252 0.734267 18.2155 0.734267 17.4755V3.52448C0.734267 2.78447 1.02823 2.07477 1.5515 1.5515C2.07477 1.02823 2.78447 0.734267 3.52448 0.734267Z" stroke="#484C52" stroke-width="1.42857" stroke-linecap="round" stroke-linejoin="round"/>
</svg>
